<svg xmlns="http://www.w3.org/2000/svg" width="202" height="45" viewBox="0 0 202 45">
  <path fill="#FF4747" fill-rule="evenodd" d="M171.959642,14.2442799 L168.327739,14.2442799 L168.327739,35.3022649 L171.959642,35.3022649 L171.959642,23.0652873 C171.959642,19.3030858 175.246657,16.4926007 179.180799,17.2280485 L179.180799,13.7687575 C175.938112,13.336556 173.34356,14.806444 171.959642,17.8761828 L171.959642,14.2442799 Z M190.639343,13.8120784 C184.542851,13.8120784 179.786284,18.4386828 179.786284,24.7511082 C179.786284,31.0648769 184.542851,35.6914813 190.639343,35.6914813 C196.736843,35.6914813 201.492403,31.0648769 201.492403,24.7511082 C201.492403,18.4386828 196.736843,13.8120784 190.639343,13.8120784 L190.639343,13.8120784 Z M190.639343,32.4054739 C186.617888,32.4054739 183.418187,29.2057724 183.418187,24.7511082 C183.418187,20.2977873 186.617888,17.0980858 190.639343,17.0980858 C194.660799,17.0980858 197.8605,20.2977873 197.8605,24.7511082 C197.8605,29.2057724 194.660799,32.4054739 190.639343,32.4054739 L190.639343,32.4054739 Z M54.4468433,5.03405597 L54.4468433,35.3022649 L60.4143806,35.3022649 L60.4143806,24.2759216 L67.7655,24.2759216 C73.688709,24.2759216 78.0993806,20.1684963 78.0993806,14.5905112 C78.0993806,9.05517537 73.8619925,5.03405597 67.9814328,5.03405597 L54.4468433,5.03405597 Z M67.3329627,19.1741306 L60.4143806,19.1741306 L60.4143806,10.3531231 L67.3329627,10.3531231 C70.1867687,10.3531231 72.1758358,12.1689067 72.1758358,14.763459 C72.1758358,17.3580112 70.1867687,19.1741306 67.3329627,19.1741306 L67.3329627,19.1741306 Z M86.401209,3.30491418 L80.9098657,5.03405597 L80.9098657,35.3022649 L86.401209,35.3022649 L86.401209,3.30491418 Z M99.7618433,35.6051754 C102.443037,35.6051754 104.864642,34.6104739 106.680425,32.9239813 L106.680425,35.3022649 L112.171769,35.3022649 L112.171769,13.7261082 L106.680425,13.7261082 L106.680425,16.1033843 C104.950612,14.3742425 102.572328,13.3798769 99.9787836,13.3798769 C94.3574776,13.3798769 89.2546791,18.0494664 89.2546791,24.4921903 C89.2546791,30.9345784 94.2705,35.6051754 99.7618433,35.6051754 L99.7618433,35.6051754 Z M100.713224,30.6756604 C97.3842313,30.6756604 94.7027015,28.1240933 94.7027015,24.4921903 C94.7027015,20.8599515 97.3842313,18.3087201 100.713224,18.3087201 C104.086209,18.3087201 106.72341,20.8599515 106.72341,24.4921903 C106.72341,28.1240933 104.086209,30.6756604 100.713224,30.6756604 L100.713224,30.6756604 Z M137.770052,13.7261082 L132.018784,13.7261082 L125.878299,26.4382724 L119.608858,13.7261082 L113.469381,13.7261082 L122.72259,32.57775 L116.539119,44.8587201 L122.506321,44.8587201 L137.770052,13.7261082 Z M161.756396,13.9447276 C161.756396,10.7023769 159.335463,8.45405597 155.61759,8.45405597 L148.267478,8.45405597 L148.267478,19.608347 L155.61759,19.608347 C159.248821,19.608347 161.756396,17.2307351 161.756396,13.9447276 L161.756396,13.9447276 Z M155.61759,5.03875746 C161.367515,5.03875746 165.517925,8.84327239 165.517925,13.9447276 C165.517925,19.0895037 161.367515,22.9373396 155.61759,22.9373396 L148.267478,22.9373396 L148.267478,35.3022649 L144.462963,35.3022649 L144.462963,5.03875746 L155.61759,5.03875746 Z M31.5159851,26.3304739 L29.7529254,23.515959 L24.6054627,23.515959 L26.371209,20.6967425 L27.9975896,20.6967425 L26.031694,17.5581604 L20.5484104,26.3304739 L5.91971642,26.3304739 L9.44214179,20.6967425 L6.85598507,20.6967425 L8.61400746,17.8775261 L19.9217687,17.8775261 L18.162403,20.6967425 L12.7694552,20.6967425 L11.0063955,23.515959 L18.9844925,23.515959 L26.031694,12.2374142 L34.8396045,26.3304739 L31.5159851,26.3304739 Z M12.1374403,12.2374142 L23.736694,12.2374142 L21.9736343,15.0579739 L10.3757239,15.0579739 L12.1374403,12.2374142 Z M20.1763209,-0.000235074627 C9.03378358,-0.000235074627 -0.000134328358,9.03435448 -0.000134328358,20.1772276 C-0.000134328358,31.3231231 9.03378358,40.3536828 20.1763209,40.3536828 C31.3188582,40.3536828 40.3537836,31.3231231 40.3537836,20.1772276 C40.3537836,9.03435448 31.3188582,-0.000235074627 20.1763209,-0.000235074627 L20.1763209,-0.000235074627 Z"/>
</svg>
